<svg xmlns="http://www.w3.org/2000/svg" width="1440" height="1024" viewBox="0 0 1440 1024" role="img" aria-labelledby="title">
  <title id="title">Abstract paper and orbit background</title>
  <rect width="1440" height="1024" fill="#f7faf8"/>
  <path d="M-80 730C210 480 360 870 690 610c250-196 430-108 830-370v784H-80Z" fill="#dceee9"/>
  <path d="M-90 900c280-240 500-60 690-220 240-202 570 8 930-300v644H-90Z" fill="#f8d7cf" opacity=".72"/>
  <path d="M980 80c210 0 380 170 380 380s-170 380-380 380-380-170-380-380S770 80 980 80Z" fill="none" stroke="#7ca89d" stroke-width="2" opacity=".42"/>
  <path d="M980 190c149 0 270 121 270 270S1129 730 980 730 710 609 710 460s121-270 270-270Z" fill="none" stroke="#d57765" stroke-width="2" opacity=".32"/>
  <circle cx="1200" cy="210" r="18" fill="#f97360"/>
</svg>
